<svg id="SvgjsSvg1502" width="288" height="250" viewBox="29 15 220 236" xmlns="http://www.w3.org/2000/svg" version="1.1"><defs id="SvgjsDefs1503"/><g id="SvgjsG1504"><svg xmlns="http://www.w3.org/2000/svg" enable-background="new 0 0 1080 1080" viewBox="0 0 1080 1080" width="288" height="288"><path fill="#9764c7" d="M257.51,303.89c-32.39,14.57-65.44,30.81-88.19,58.09c-7.59,9.1-14.12,20.15-13.46,31.98		c1.23,22.06,26.53,35.2,48.62,35.24s43.58-8.24,65.67-8.18c11.4,0.03,25.67,5.55,25.52,16.96c-0.09,6.82-5.57,12.19-10.65,16.73
		c-38.99,34.85-77.98,69.7-116.98,104.55c-12.99,11.61-26.39,23.78-33.15,39.84c-6.76,16.06-4.81,37.22,9.18,47.62
		c9.21,6.85,21.44,7.75,32.92,7.95c52.13,0.93,103.99-7.09,155.26-16.54c181.29-33.4,359.21-85,530.25-153.75
		c31.32-12.59,64.94-28.06,79.85-58.34c17.22-35-1.15-82.83-37.38-97.29c-21.65-8.65-45.99-6.18-68.91-10.42
		c-22.92-4.24-47.5-19.95-47.74-43.25c-0.38-38.55,62-53.18,63.79-91.69c0.95-20.39-17.58-37.62-37.51-42.05s-40.63,0.91-60.11,7.03
		C754.49,148.35,401.19,239.27,257.51,303.89z" class="colorf7f7f7 svgShape"/><path fill="#ffcccc" d="M203.79,703.85c16.43-14.39,35.22-29.65,57.03-28.67c18.11,0.81,33.9,13,45.16,27.22
		c11.26,14.21,19.23,30.75,30.03,45.32c11.38,15.34,27.82,29.16,46.92,29.02c20.05-0.15,36.42-15.28,50.61-29.45
		c31.32-31.27,62.64-62.54,93.96-93.81c17.35-17.32,38.4-36,62.73-33.01c24.29,2.99,40.18,26.17,52.82,47.13
		c19.23,31.89,38.45,63.79,57.68,95.68c3.83,6.36,7.93,12.98,14.37,16.68c17.03,9.79,37.08-5.77,50.55-20.07
		c13.87-14.73,28.14-29.68,46.04-39.13c17.89-9.45,40.36-12.61,58.24-3.13c11.4,6.04,19.75,16.44,27.77,26.55
		c30.97,39.06,61.95,78.12,92.92,117.18H49.33C49.33,861.35,152.3,748.94,203.79,703.85z" class="colorcce9ff svgShape"/><path fill="#ffcccc" d="M223.87,704.91c12.96-11.33,27.14-23.47,44.42-27.23c17.56-3.82,34.11,3.96,46.68,15.91
			c24.04,22.86,32.74,58.91,61.82,76.99c12.63,7.85,27.42,9.88,41.38,4.36c14.23-5.62,25.52-16.69,36.17-27.31
			c28.29-28.22,56.57-56.47,84.85-84.71c21.76-21.73,52.2-54.54,85.75-35.66c13.52,7.61,23.09,20.8,31.26,33.63
			c10.13,15.92,19.58,32.3,29.32,48.46c10.3,17.09,20.6,34.17,30.9,51.26c7.34,12.17,15.75,25.41,31.95,23.75
			c14.37-1.48,26.73-12.36,36.33-22.32c12.3-12.76,24.31-25.96,39.33-35.62c14.85-9.56,33.08-15.44,50.81-12.12
			c17.87,3.35,29.56,16.74,40.33,30.29c24.98,31.43,49.89,62.92,74.84,94.38c6.19,7.81,12.39,15.62,18.58,23.44
			c0.35-0.85,0.71-1.71,1.06-2.56c-8.41,0-16.81,0-25.22,0c-22.87,0-45.74,0-68.62,0c-33.82,0-67.65,0-101.47,0
			c-41.1,0-82.21,0-123.31,0c-45.01,0-90.02,0-135.03,0c-45.6,0-91.2,0-136.8,0c-42.52,0-85.04,0-127.56,0
			c-35.92,0-71.85,0-107.77,0c-25.74,0-51.48,0-77.22,0c-8.04,0-16.08,0-24.12,0c-4.01,0-8.62-0.64-12.6,0c-0.49,0.08-1.06,0-1.56,0
			c0.35,0.85,0.71,1.71,1.06,2.56c37.44-40.87,75.58-81.22,114.98-120.21C197.25,729.47,210.26,716.85,223.87,704.91
			c1.45-1.28-0.67-3.39-2.12-2.12c-26.16,22.95-50.53,48.02-74.74,72.98c-22.47,23.17-44.64,46.65-66.6,70.31
			c-4.38,4.72-8.77,9.45-13.12,14.21c-0.86,0.94-0.28,2.56,1.06,2.56c8.41,0,16.81,0,25.22,0c22.87,0,45.74,0,68.62,0
			c33.82,0,67.65,0,101.47,0c41.1,0,82.21,0,123.31,0c45.01,0,90.02,0,135.03,0c45.6,0,91.2,0,136.8,0c42.52,0,85.04,0,127.56,0
			c35.92,0,71.85,0,107.77,0c25.74,0,51.48,0,77.22,0c12.22,0,24.5,0.34,36.72,0c0.52-0.01,1.04,0,1.56,0
			c1.41,0,1.83-1.59,1.06-2.56c-25.6-32.29-51.21-64.58-76.81-96.87c-11-13.87-21.37-29.84-35.23-41.08
			c-12.28-9.96-27.56-13.44-43.1-11.28c-16.11,2.24-30.56,10.04-43.16,20.06c-13.79,10.97-24.57,24.94-37.82,36.43
			c-13.15,11.41-32.69,21.31-46.54,5.23c-6.3-7.32-10.77-16.55-15.74-24.79c-5.32-8.83-10.64-17.65-15.96-26.48
			c-10.47-17.37-20.94-34.74-31.41-52.11c-7.74-12.84-15.78-25.94-26.91-36.17c-9.98-9.17-22.59-15.3-36.4-14.51
			c-15.03,0.86-28.33,9.13-39.66,18.46c-14.4,11.86-27.13,25.87-40.32,39.03c-14.49,14.47-28.98,28.94-43.48,43.4
			c-13.2,13.18-25.94,27.21-40.17,39.28c-13.54,11.49-30.33,20.1-48.34,14.41c-34.63-10.94-45.45-52.14-67.62-76.76
			c-10.1-11.22-23.38-20.7-38.7-22.57c-15.75-1.93-30.57,4.97-43.12,13.88c-6.46,4.58-12.49,9.72-18.45,14.93
			C220.29,704.07,222.42,706.18,223.87,704.91z" class="colorcce9ff svgShape"/><path fill="#ffdcdc" d="M933.18 399.15c-19.53-18.48-43.23-23.66-72.55-22.29-4.8.23-10.17 1.03-12.94 4.35-2.76 3.32.22 9.38 4.91 8.45-33.11-15.66-72.58-21.55-110.06-16.42-4.14.57-8.65 1.47-11.13 4.32-2.47 2.86-.83 8.08 3.37 8.12-30.79-12.77-86.32 11.89-80.76 14.02L933.18 399.15zM798.36 575.79c-18.05-17.08-39.96-21.87-67.05-20.6-4.44.21-9.4.95-11.96 4.02-2.55 3.07.21 8.67 4.53 7.81-30.6-14.48-67.08-19.92-101.72-15.18-3.83.52-8 1.36-10.28 4-2.29 2.64-.77 7.47 3.11 7.51-28.46-11.81-79.77 10.99-74.63 12.96L798.36 575.79z" class="colordcf2ff svgShape"/><polygon fill="#ff5555" points="254.73 534.01 53.95 538.21 145.88 557.06 96.17 593.31 257.53 555.59" class="colorffbe55 svgShape"/><polygon fill="#ff5555" points="261.87 563.24 43.99 691.47 164.29 601.04 48.97 598.55 261.87 545.05" class="colorffbe55 svgShape"/><path fill="#ff5555" d="M91.86,642.49l32.95-29.29L9.5,605.65l78.91-42.38l-75.9-35.62h92.41l-52.57-58.48l1.75,0.56
				c2.01,0.64,200.79,63.79,207.77,63.79h1.27l-63.3,58.86L91.86,642.49z M13.05,604.88l114.22,7.48l-29.65,26.36l101.74-47.22
				l61.42-57.14c-16.54-3.26-184.82-56.65-205.22-63.13l51.61,57.41H16.99l73.64,34.56L13.05,604.88z" class="colorffbe55 svgShape"/><polygon fill="#ff5555" points="245.15 527.68 115.39 475.94 142.74 511.1 20.66 494.95 257.53 551.14" class="colorffbe55 svgShape"/><path fill="#099a97" d="M457.54,368.35c0,0-16.29,57.66,43.01,65.45c-2.96,6.17-3.56,8.68-3.56,8.68s-60.41-14.45-57.41-51.28
			C450.22,367.95,457.54,368.35,457.54,368.35z" class="color2189d6 svgShape"/><polygon fill="#15cda8" points="329.24 474.61 268.59 445.74 199.63 528.14 257.53 515.49" class="color2a94f4 svgShape"/><polygon fill="#15cda8" points="352.95 583.12 309.86 634.66 212.83 588.52 270.72 575.87" class="color2a94f4 svgShape"/><polygon fill="#0e8c89" points="278.6 566.5 254.26 569.38 245.15 527.68 268.59 520.73" class="color0e538c svgShape"/><path fill="#ffcccc" d="M662.64,458.61c0,0-62.19,67.17-142.67,102.69c-1.5,0.66-3,1.31-4.51,1.94c-1.5,0.65-3.02,1.27-4.53,1.88
				c-13.39,5.41-27.24,9.87-41.34,12.95c-68.08,14.88-149.46,10.63-198.66-1.23l-13.4-61.35c39.77-31.32,111.75-70.07,179.83-84.94
				c14.1-3.08,28.54-4.8,42.97-5.46c1.64-0.08,3.28-0.14,4.91-0.19c1.64-0.05,3.27-0.09,4.91-0.11
				C578.11,423.5,662.64,458.61,662.64,458.61z" class="colorcce9ff svgShape"/><path fill="#15cda8" d="M662.64,458.61c0,0-62.19,67.17-142.67,102.69c-1.5,0.66-3,1.31-4.51,1.94
					c-19.52-18-32.58-40.16-37.83-64.21c-5.25-24.04-2.62-49.63,7.62-74.13c1.64-0.05,3.27-0.09,4.91-0.11
					C578.11,423.5,662.64,458.61,662.64,458.61z" class="color2a94f4 svgShape"/><path fill="#0e8c89" d="M490.15,424.79c-1.64,0.02-3.27,0.06-4.91,0.11c-1.63,0.05-3.27,0.11-4.91,0.19
					c-4.63,11.52-7.66,23.25-9.02,34.94c-1.56,13.47-0.91,26.91,1.94,39.95c2.85,13.04,7.86,25.54,14.9,37.12
					c6.11,10.06,13.76,19.47,22.77,28.01c1.51-0.61,3.03-1.24,4.53-1.88c1.51-0.64,3.01-1.28,4.51-1.94
					c-19.2-17.2-32.59-38.6-37.97-63.22C476.62,473.45,479.87,448.43,490.15,424.79z" class="color0e538c svgShape"/><path fill="#ffcccc" d="M509.31,430.51c25.87,1.18,113.33,18.5,133.44,27.19c-17.37-1.33-124.05-20.71-130.24-12.53
				C509.53,436.72,509.31,430.51,509.31,430.51z" class="colorcce9ff svgShape"/><polygon fill="#15cda8" points="342.86 536.94 234.69 560.58 206.23 558.33 231.16 544.42 339.33 520.79" class="color2a94f4 svgShape"/><polygon fill="#0b706e" points="449.38 536.54 465.44 557.06 443.07 543.8 443.07 546.8 437.67 543.17 442.75 534.01" class="color0b4870 svgShape"/><path fill="#0b605e" d="M465.01,483.41c1.47-1.84,0.45-4.58-1.86-5.02c-19.74-3.79-64.02-15.12-70.71-22.45
			c-7.46-8.17,2.84-18.82,10.3-24.5l23.63,10.05l60.93,28.6c1.68,0.79,2.31,2.86,1.36,4.45l-37.48,63.68c0,0-6.75-0.71-11.36-1.78
			C439.82,536.44,457.33,491.06,465.01,483.41z" class="color0b3e60 svgShape"/><polygon fill="#fcb1b1" points="473.04 438.81 489.74 438.81 484.61 440.38 489.74 444.72 484.22 450.25 473.04 443.74" class="colorfcd2b1 svgShape"/><polygon fill="#15cda8" points="458.27 366.54 452.29 401.1 426.37 441.48 398.73 434.14 424.64 359.26 453.81 352.95" class="color2a94f4 svgShape"/><polygon fill="#fcb1b1" points="466.94 357.52 457.54 368.35 453.81 352.95 458.27 350.17" class="colorfcd2b1 svgShape"/><path fill="#0e8c89" d="M456.41,323.53c-4.27,1.72-6.41,12.66-5.75,14.97c0.66,2.31,6.96,11.67,6.96,11.67l11.24-24.72L456.41,323.53
			z" class="color0e538c svgShape"/><path fill="#ffcaca" d="M472.99,331.02c0,0,8.42,31.92,2.21,30.47c-6.21-1.46-15.29-2.65-16.44-5.73s-3.88-23.37-1.27-26.5
			s15.02-0.22,15.02-0.22L472.99,331.02z" class="colorffe3ca svgShape"/><path fill="#0e8c89" d="M455.58,332c-1.5-1.28-2.14-3.49-1.56-5.38c0.82-2.65,3.65-4.18,6.38-4.66s5.54-0.18,8.29-0.58
				c2.74-0.4,5.62-1.75,6.66-4.31c1.48,1.32,2.31,3.34,2.19,5.32c0.92-0.83,1.85-1.66,2.77-2.49c-1.33,4.05-2.88,8.4-6.44,10.74
				c-3.47,2.27-7.95,2.03-12.08,1.71C461.78,332.34,457.08,333.28,455.58,332z" class="color0e538c svgShape"/><polygon fill="#0e8c89" points="461.45 331.39 455.65 340.35 455.08 329.21" class="color0e538c svgShape"/><ellipse cx="456.59" cy="343.69" fill="#ffcaca" rx="2.04" ry="2.81" transform="rotate(-16.804 456.512 343.643)" class="colorffe3ca svgShape"></ellipse><path fill="#45ffda" d="M424.64,359.26c0,0-41.52,79.55,50.03,86.56c-0.46-4.46-0.46-7.9-0.46-7.9s-47.37-6.31-40.18-47.48
			c0.77-4.39,2.2-8.63,3.97-12.72C446.06,359.05,424.64,359.26,424.64,359.26z" class="color45afff svgShape"/><g fill="#000000" class="color000 svgShape"><path fill="#9764c7" d="M865.09,565.76c-3.34,0.41-6.81,0.84-9.34,1.17c-19.79-25.64-36.54-74.17-45.05-128.59
				c3.12-0.38,6.23-0.77,9.35-1.15C828.56,491.59,845.3,540.11,865.09,565.76z" class="colorf7f7f7 svgShape"/><path fill="#9764c7" d="M865.09,565.76c0.21,0.27,0.42,0.54,0.63,0.81c-3.12,0.38-6.23,0.77-9.35,1.15
				c-0.21-0.26-0.41-0.53-0.62-0.79C858.28,566.6,861.75,566.17,865.09,565.76z" class="colorf7f7f7 svgShape"/><path fill="#9764c7" d="M865.72,566.57c4.01,5.09,8.15,9.23,12.36,12.29l-9.35,1.15c-4.21-3.06-8.35-7.2-12.36-12.29
				C859.49,567.34,862.6,566.95,865.72,566.57z" class="colorf7f7f7 svgShape"/><path fill="#ff5555" d="M825.52,377.77c1.32,74.11,24.6,150.32,52,170.23l-9.35,1.15c-27.4-19.91-50.68-96.12-52-170.23
				c-0.33-18.53,0.74-35.17,2.97-49.4c3.12-0.38,6.23-0.77,9.35-1.15C826.27,342.6,825.19,359.24,825.52,377.77z" class="colorffbe55 svgShape"/><path fill="#9764c7" d="M850.69,464.61c6.89,22.56,16.17,40.15,26.2,47.44l-9.35,1.15c-10.03-7.29-19.31-24.88-26.2-47.44
				C844.46,465.38,847.57,464.99,850.69,464.61z" class="colorf7f7f7 svgShape"/><path fill="#ff5555" d="M866.91,466.52c2.91,5.34,6.08,9.43,9.38,11.82l-9.35,1.15c-3.29-2.39-6.47-6.48-9.38-11.82
				C860.67,467.29,863.79,466.91,866.91,466.52z" class="colorffbe55 svgShape"/><path fill="#9764c7" d="M864.59 412c1.25 14.14 5.82 27.4 11.07 31.22l-9.35 1.15c-5.25-3.82-9.82-17.08-11.07-31.22C858.35 412.76 861.47 412.38 864.59 412zM838.81 387.42c.48 27.12 4.99 54.63 11.88 77.19-3.12.38-6.23.77-9.35 1.15-6.89-22.55-11.39-50.06-11.88-77.19-.79-44.01 9.25-73.48 23.77-75.27l9.35-1.15C848.06 313.95 838.03 343.42 838.81 387.42z" class="colorf7f7f7 svgShape"/><path fill="#9764c7" d="M814.11,369.48c0.41,22.78,2.5,45.72,5.94,67.71c-3.12,0.38-6.23,0.77-9.35,1.15
				c-3.44-21.98-5.53-44.93-5.94-67.71c-1.32-73.94,15.54-123.46,39.94-126.46l9.35-1.15C829.65,246.02,812.79,295.54,814.11,369.48
				z" class="colorf7f7f7 svgShape"/><path fill="#ff5555" d="M851.27 396.48c.48 26.73 6.9 54.03 15.63 70.05-3.12.38-6.23.77-9.35 1.15-8.74-16.02-15.16-43.32-15.63-70.05-.52-28.91 6.07-48.27 15.61-49.44l9.35-1.15C857.35 348.21 850.76 367.57 851.27 396.48zM857.99 274.95c-13.72 1.69-24.51 21.48-29.5 53.42-3.12.38-6.23.77-9.35 1.15 4.99-31.94 15.78-51.73 29.5-53.42C851.45 275.76 855.19 275.3 857.99 274.95z" class="colorffbe55 svgShape"/><path fill="#9764c7" d="M864.26,405.91c0.04,2.03,0.15,4.06,0.33,6.08c-3.12,0.38-6.23,0.77-9.35,1.15
				c-0.18-2.02-0.29-4.05-0.33-6.08c-0.24-13.17,2.77-21.99,7.12-22.52l9.35-1.15C867.03,383.92,864.02,392.75,864.26,405.91z" class="colorf7f7f7 svgShape"/><path fill="#ff5555" d="M876.28,478.34c2.49,1.81,4.87,2.52,7.09,2.25l-9.35,1.15c-2.22,0.27-4.6-0.44-7.09-2.25
				C869.74,479.15,873.55,477.64,876.28,478.34z" class="colorffbe55 svgShape"/><path fill="#9764c7" d="M875.66 443.21c1.13.82 2.22 1.15 3.23 1.02l-9.35 1.15c-1.01.12-2.1-.2-3.23-1.02C869.11 444.02 872.92 442.5 875.66 443.21zM876.89 512.05c3.79 2.75 7.41 3.84 10.79 3.42l-9.35 1.15c-3.38.42-7-.67-10.79-3.42C870.34 512.86 874.08 512.39 876.89 512.05z" class="colorf7f7f7 svgShape"/><path fill="#ff5555" d="M877.53,548c5.17,3.76,10.12,5.24,14.74,4.67l-9.35,1.15c-4.62,0.57-9.57-0.91-14.74-4.67
				C870.98,548.81,874.79,547.29,877.53,548z" class="colorffbe55 svgShape"/><path fill="#9764c7" d="M878.08,578.86c6.36,4.62,12.45,6.45,18.13,5.75l-9.35,1.15c-5.68,0.7-11.77-1.13-18.13-5.75
				C871.53,579.67,875.27,579.2,878.08,578.86z" class="colorf7f7f7 svgShape"/><path fill="#ff5555" d="M862.03,384.54l9.35-1.15c1.01-0.12,2.1,0.2,3.23,1.02l-9.35,1.15
				C864.12,384.74,863.04,384.42,862.03,384.54z" class="colorffbe55 svgShape"/><path fill="#9764c7" d="M857.54,348.19l9.35-1.15c2.22-0.27,4.6,0.44,7.09,2.25l-9.35,1.15
				C862.14,348.63,859.76,347.91,857.54,348.19z" class="colorf7f7f7 svgShape"/><path fill="#ff5555" d="M853.23 313.31l9.35-1.15c3.38-.42 7.01.67 10.8 3.42l-9.35 1.15C860.24 313.97 856.61 312.89 853.23 313.31zM878.89 444.23l-9.35 1.15c4.34-.54 7.35-9.35 7.11-22.53-.29-16.23-5.39-32.94-11.39-37.29l9.35-1.15c6 4.36 11.1 21.06 11.39 37.29C886.23 434.88 883.23 443.7 878.89 444.23z" class="colorffbe55 svgShape"/><path fill="#9764c7" d="M848.64,276.1l9.35-1.15c4.62-0.57,9.57,0.91,14.75,4.67l-9.35,1.15
				C858.21,277.02,853.26,275.53,848.64,276.1z" class="colorf7f7f7 svgShape"/><path fill="#ff5555" d="M844.7,244.17l9.35-1.15c5.68-0.7,11.77,1.12,18.14,5.75l-9.35,1.15
				C856.47,245.29,850.38,243.47,844.7,244.17z" class="colorffbe55 svgShape"/><path fill="#9764c7" d="M883.37,480.59l-9.35,1.15c9.54-1.18,16.13-20.54,15.61-49.44c-0.64-35.64-11.84-72.29-25.01-81.86
				l9.35-1.15c13.17,9.57,24.37,46.22,25.01,81.86C899.5,460.05,892.91,479.41,883.37,480.59z" class="colorf7f7f7 svgShape"/><path fill="#ff5555" d="M887.68,515.47l-9.35,1.15c14.52-1.79,24.55-31.27,23.77-75.27c-0.97-54.26-18.02-110.05-38.07-124.62
				l9.35-1.15c20.05,14.57,37.1,70.37,38.07,124.62C912.23,484.2,902.2,513.68,887.68,515.47z" class="colorffbe55 svgShape"/><path fill="#9764c7" d="M892.27,552.67l-9.35,1.15c19.83-2.45,33.53-42.71,32.46-102.82c-1.32-74.11-24.6-150.32-52-170.23
				l9.35-1.15c27.4,19.9,50.68,96.12,52,170.23C925.81,509.96,912.11,550.23,892.27,552.67z" class="colorf7f7f7 svgShape"/><path fill="#ff5555" d="M896.22,584.61l-9.35,1.15c24.39-3.01,41.25-52.53,39.93-126.46c-1.63-91.15-30.27-184.89-63.96-209.38
				l9.35-1.15c33.7,24.48,62.33,118.23,63.96,209.38C937.47,532.08,920.61,581.6,896.22,584.61z" class="colorffbe55 svgShape"/><path fill="#ff5555" d="M862.84,249.92c33.7,24.48,62.33,118.23,63.96,209.38c1.63,91.16-24.37,145.2-58.07,120.72
				c-33.7-24.48-62.34-118.22-63.97-209.38C803.14,279.48,829.14,225.43,862.84,249.92z M868.18,549.15
				c27.4,19.9,48.53-24.03,47.21-98.15c-1.32-74.11-24.6-150.32-52-170.23c-27.4-19.91-48.53,24.04-47.21,98.15
				C817.5,453.04,840.78,529.25,868.18,549.15" class="colorffbe55 svgShape"/><path fill="#9764c7" d="M864.63,350.44c13.17,9.57,24.37,46.22,25.01,81.86c0.64,35.64-9.53,56.77-22.7,47.2
				c-13.18-9.57-24.37-46.22-25.01-81.86C841.29,361.99,851.46,340.86,864.63,350.44z M866.31,444.36c6,4.36,10.63-5.26,10.34-21.5
				c-0.29-16.23-5.39-32.94-11.39-37.29c-6-4.36-10.64,5.27-10.35,21.5C855.2,423.31,860.3,440,866.31,444.36" class="colorf7f7f7 svgShape"/><path fill="#9764c7" d="M915.39,451.01c-0.97-54.42-13.79-109.98-31.37-143.54c-0.37-0.71-0.75-1.42-1.13-2.11
				c-1.89-3.47-3.84-6.68-5.83-9.62c-0.4-0.59-0.8-1.16-1.2-1.73c-4.01-5.64-8.19-10.12-12.47-13.23
				c-5.14-3.73-10.05-5.22-14.64-4.68c-2.68,0.31-5.24,1.31-7.68,2.96c-0.7,0.47-1.38,0.99-2.05,1.57c-0.67,0.57-1.34,1.2-1.99,1.88
				c-1.95,2.03-3.79,4.51-5.52,7.42c-0.58,0.97-1.14,1.99-1.68,3.05c-0.55,1.06-1.08,2.17-1.6,3.33c-0.52,1.16-1.03,2.36-1.52,3.6
				c-6.63,16.81-10.56,41.71-10.59,72.17c0,2.26,0.02,4.54,0.06,6.86c0.52,28.95,4.38,58.22,10.54,84.33
				c0.25,1.04,0.5,2.08,0.75,3.12c2.03,8.27,4.28,16.21,6.74,23.69c2.76,8.42,5.76,16.26,8.97,23.37c0.71,1.58,1.43,3.12,2.16,4.63
				c6.94,14.31,14.71,25.18,22.85,31.09c1.28,0.93,2.55,1.73,3.81,2.38c0.84,0.44,1.67,0.81,2.49,1.13
				c0.82,0.32,1.64,0.57,2.44,0.77c1.21,0.3,2.4,0.46,3.58,0.5c0.78,0.02,1.56-0.01,2.32-0.1c19.12-2.23,32.57-39.57,32.62-95.97
				C915.45,455.61,915.43,453.32,915.39,451.01z M867.54,513.2c-20.06-14.57-37.11-70.37-38.07-124.62
				c-0.97-54.26,14.51-86.42,34.57-71.85c20.05,14.57,37.1,70.37,38.07,124.62C903.07,495.61,887.59,527.77,867.54,513.2" class="colorf7f7f7 svgShape"/><path fill="#f1e4e4" d="M900.11,616.14l-9.35,1.15c28.9-3.57,48.87-62.23,47.3-149.82c-1.93-107.98-35.85-219.04-75.77-248.04
				l9.35-1.15c39.92,29,73.85,140.06,75.77,248.04C948.98,553.91,929.01,612.58,900.11,616.14z" class="colordbdbdb svgShape"/><path fill="#9764c7" d="M938.07,467.48c-1.93-107.98-35.85-219.04-75.77-248.04c-39.92-29.01-70.72,35.02-68.8,143.01
				c1.93,107.99,35.85,219.04,75.78,248.04C909.19,639.49,939.99,575.47,938.07,467.48z M925.9,495.43
				c-0.28,3.87-0.62,7.64-1.01,11.3c-0.37,3.43-0.78,6.76-1.25,10c-0.18,1.27-0.37,2.53-0.57,3.77c-0.32,2.03-0.66,4.02-1.02,5.97
				c-0.19,1.05-0.39,2.08-0.59,3.11c-0.37,1.86-0.76,3.67-1.16,5.45c-0.09,0.41-0.19,0.82-0.28,1.23c-0.34,1.46-0.69,2.89-1.06,4.29
				c-0.11,0.44-0.23,0.87-0.35,1.31c-1.12,4.15-2.33,8.04-3.65,11.66c-0.19,0.52-0.38,1.02-0.57,1.53c-0.93,2.47-1.91,4.8-2.94,7
				c-0.99,2.11-2.01,4.1-3.07,5.95c-1.2,2.09-2.45,4.02-3.74,5.76c-0.69,0.93-1.4,1.81-2.13,2.64c-0.09,0.11-0.19,0.22-0.28,0.32
				c-1.15,1.3-2.33,2.47-3.53,3.5c-0.83,0.71-1.67,1.35-2.53,1.93c-0.86,0.58-1.72,1.09-2.61,1.54c-0.88,0.45-1.78,0.83-2.68,1.14
				c-0.82,0.29-1.65,0.51-2.49,0.68c-0.16,0.03-0.32,0.06-0.48,0.09c-0.82,0.15-1.65,0.25-2.49,0.29c-0.04,0-0.08,0.01-0.12,0.01
				c-5.23,0.22-10.79-1.67-16.58-5.87c-20.66-15.01-39.41-56.04-51.21-106.55c-0.47-1.99-0.92-4-1.36-6.02
				c-0.69-3.16-1.36-6.35-2-9.57c-0.96-4.84-1.85-9.75-2.68-14.71c-0.3-1.8-0.59-3.62-0.87-5.43c-2.3-14.83-3.99-30.09-4.96-45.44
				c-0.01-0.18-0.02-0.36-0.03-0.54c-0.44-7.04-0.73-14.09-0.85-21.13c-1.63-91.15,24.37-145.2,58.07-120.71
				c3.11,2.26,6.18,5.12,9.19,8.5c0.65,0.73,1.3,1.49,1.94,2.27c28.66,34.74,51.39,117.69,52.83,198.6
				C927.03,472.11,926.71,484.2,925.9,495.43" class="colorf7f7f7 svgShape"/><path fill="#ff5555" d="M874.75,406.23c-0.18-0.85-0.37-1.7-0.57-2.52c-0.11-0.45-0.23-0.9-0.34-1.34c-0.23-0.89-0.48-1.75-0.74-2.6
				c-0.13-0.42-0.26-0.84-0.39-1.25c-0.27-0.82-0.55-1.61-0.84-2.38c-1.88-4.99-4.17-8.79-6.61-10.57
				c-0.75-0.55-1.48-0.87-2.18-0.99c-3.85-0.67-6.85,4.83-7.83,14.11c-0.04,0.42-0.09,0.85-0.12,1.29
				c-0.07,0.87-0.13,1.78-0.17,2.71c-0.06,1.4-0.07,2.86-0.05,4.39c0.13,7.11,1.17,14.3,2.82,20.51c0.23,0.89,0.48,1.75,0.74,2.6
				c0.52,1.69,1.08,3.28,1.67,4.76c0.6,1.48,1.23,2.84,1.9,4.05c0.17,0.3,0.33,0.6,0.5,0.89c0.68,1.14,1.38,2.14,2.11,2.96
				c0.54,0.62,1.1,1.13,1.66,1.54c2.25,1.63,4.31,1.3,5.99-0.61c0.28-0.32,0.55-0.68,0.81-1.08c0.64-1.01,1.22-2.28,1.71-3.79
				c0.2-0.6,0.38-1.24,0.54-1.92c0.25-1.01,0.47-2.11,0.65-3.28c0.43-2.73,0.66-5.86,0.66-9.32c0-0.49,0-1-0.01-1.5
				C876.55,417.19,875.86,411.47,874.75,406.23z" class="colorffbe55 svgShape"/><path fill="#f1e4e4" d="M840.8,212.63l9.35-1.15c6.73-0.83,13.95,1.33,21.49,6.81l-9.35,1.15
				C854.75,213.96,847.53,211.8,840.8,212.63z" class="colordbdbdb svgShape"/><path fill="#ff5555" d="M864.03,316.73c20.05,14.57,37.1,70.37,38.07,124.62c0.97,54.26-14.51,86.42-34.56,71.85
				c-20.06-14.57-37.11-70.37-38.07-124.62C828.49,334.32,843.97,302.16,864.03,316.73z M866.94,479.5
				c13.17,9.57,23.34-11.56,22.7-47.2c-0.64-35.64-11.84-72.29-25.01-81.86c-13.18-9.57-23.34,11.55-22.71,47.2
				C842.56,433.27,853.76,469.92,866.94,479.5" class="colorffbe55 svgShape"/></g><g fill="#000000" class="color000 svgShape"><path fill="#ffdcdc" d="M538.99,260.06c-26.55-25.11-58.76-32.16-98.61-30.29c-6.53,0.31-13.83,1.4-17.58,5.91
		c-3.76,4.51,0.3,12.75,6.67,11.48c-45-21.29-98.65-29.29-149.59-22.32c-5.63,0.77-11.76,1.99-15.12,5.88
		c-3.36,3.88-1.13,10.98,4.57,11.04C227.47,224.39,152,257.9,159.56,260.8L538.99,260.06z" class="colordcf2ff svgShape"/></g></svg></g></svg>
