<svg id="SvgjsSvg1043" width="288" height="288" xmlns="http://www.w3.org/2000/svg" version="1.1" xmlns:xlink="http://www.w3.org/1999/xlink" xmlns:svgjs="http://svgjs.com/svgjs"><defs id="SvgjsDefs1044"></defs><g id="SvgjsG1045"><svg xmlns="http://www.w3.org/2000/svg" xmlns:xlink="http://www.w3.org/1999/xlink" enable-background="new 0 0 875 823" viewBox="0 0 875 823" width="288" height="288"><path fill="#9764c7" d="M797,552.6c50.9-91.1,30.4-212.3-60.2-282.9c-49.6-38.6-114.7-51-163.4-91.3
		C518.7,133.1,464.6,78.1,393.2,60.9c-75.9-18.3-159.5,8.8-212.3,65.8C116.5,196,123,293.5,151.8,378.4
		C224.9,593.6,512.4,763.6,723,630.1C755.5,609.5,780.2,582.7,797,552.6z" class="colorcce9ff svgShape"></path><path fill="#ff5555" d="M803.1,234.1c0,5.9-4.5,10.6-10.1,10.6h-6.8v24.8l-23.7-24.8h-77.8c-5.6,0-10.1-4.7-10.1-10.6v-88.5
			c0-5.9,4.5-10.6,10.1-10.6h108.2c5.6,0,10.1,4.8,10.1,10.6V234.1z" class="colorffbe55 svgShape"></path><path fill="#15cda8" d="M627.3,277.6c0,5.9,4.5,10.6,10.1,10.6h6.8V313l23.7-24.8h77.8c5.6,0,10.1-4.7,10.1-10.6v-88.5
			c0-5.9-4.5-10.6-10.1-10.6H637.4c-5.6,0-10.1,4.8-10.1,10.6V277.6z" class="color2a94f4 svgShape"></path><polygon fill="#ffcaca" points="559.4 469 572 459.8 573.3 458 571 455.4 568 456.2 567.2 447.6 552.4 447.2 544.6 445 555 467" class="colorffe3ca svgShape"></polygon><path fill="#ffcaca" d="M585.4,379.8l-40.7,64.1c0,0,3.1,8.1,6.4,3.1c0.4-0.6-2.3-1.9,0.5-3.9c11.2-8,31-22.1,40.1-33.3
		c12-14.7,12.5-34.4,12.5-34.4L585.4,379.8z" class="colorffe3ca svgShape"></path><polygon fill="#ffffff" points="567.6 437.7 552.8 428 564.1 412.6 578.9 422.2" class="colorfff svgShape"></polygon><path fill="#099a97" d="M540.5,305.7l41.8,54.7l-26.6,61.4c0,0,17.6,16.4,21.4,12.3c31.1-33.4,41.9-75.8,41.9-75.8l-53.5-87.4
		c0,0-6.1-13.8-18.3-11.5C522.6,264,537.5,299.8,540.5,305.7z" class="color0e538c svgShape"></path><path fill="#0b706e" d="M445.9 733.2c-1 1.2-.4 4.4-.4 4.4s17.4 2.3 23.1 1.2c1.5-.3 4-1.5 6.3-2.8.4-.2 1.1-1.5 1.5-1.8.7-.4 1.1.3 1.7-.1 1.6-.9 2.7-1.7 2.7-1.8 1.7-7.9-.2-11.2-.2-11.2s-14.7-5.3-17.6-1.9C456.2 727.2 448.1 730.6 445.9 733.2zM536.9 723.4l1.7 13 13.3.7c0 0 .8-1.8 2-1.7.9.1 2 1.9 3.3 2 2.8.2 5.9.3 7.1.4 2.5.1 26.6 1.5 26.6 1.5s.8-2.7.1-3.7c-.3-.5-2.5-1.5-4-2-6.7-2.3-26-9.4-29-16C554.4 709.6 536.9 723.4 536.9 723.4z" class="color0b4870 svgShape"></path><path fill="#0b706e" d="M509,399.9l-47.8-1.1c0,0-6.9,29.1-7.5,53.7c-0.9,35-1.5,69.6-0.8,91.1c-0.8,3.4-1.1,6.9-0.9,10.3
		c1.5,25.9,8,163.4,8,163.4s20.7,2.4,21-0.1c4.9-41.2,10.8-107.7,10.9-133c0.1-7.9,0.4-15.8,0.8-23.2C496,548.3,509,399.9,509,399.9
		z" class="color0b4870 svgShape"></path><path fill="#0b706e" d="M564.7,721.9l-15.1-152c0-0.1,0.1-0.1,0.1-0.1l-5.8-150.3l-64.1-4.3c0,0,4,9.2,12.6,48.8
		c0,0,10.3,80.2,21.2,121.6c0.2,0.9,0.5,1.6,0.7,2.4c3.2,41.3,21.3,141.3,21.3,141.3L564.7,721.9z" class="color0b4870 svgShape"></path><path fill="#ffcaca" d="M371.3,315.5c0,0-19.4-15.3-47.1-47c-9.4-10.7-4.8,0.9-3.2,14.3c1.6,13.4,27.7,40,56.3,47.5
		C405.9,337.8,371.3,315.5,371.3,315.5z" class="colorffe3ca svgShape"></path><path fill="#ffcaca" d="M326.4,276.9c0,0,4.4-14.4,2.1-18c-2.3-3.6-11.6-16.1-11.6-16.1l-2.7-3c0,0-4.8,1.2,1.5,9.6
		c6.3,8.4,1.1,6,1.1,6l-8.5-5.3l-11-5.7l-4.5-3.2c0,0-2.4-2-3.4-2c-2.8,0.1-1.7,2.3-1.7,2.3l16.7,13.9l-18.7-8.5
		c0,0-2.6-0.7-3.4,0.5c-0.8,1.1,0,1.5,0,1.5l19,14.8l-10.2-3.3c0,0-2.5-0.6-3.4,0.5c-0.9,1.2-1.2,1.5-1.2,1.5l37.4,18.1L326.4,276.9
		z" class="colorffe3ca svgShape"></path><polygon fill="#ffffff" points="325.8 296 316.6 284 332.1 273 341.3 285" class="colorfff svgShape"></polygon><path fill="#099a97" d="M487.3,277.8c0,0,2.5,11.3-40.5,56.9c-24,25.5-37.3,37.8-49.2,32.1c-24.3-11.6-81.7-65.9-81.7-65.9l22.5-25.6
		c0,0,54.4,43.7,62.8,48.3c3.5,1.9,25.2-29.1,47.3-60.5C452.5,257.3,484.4,274.7,487.3,277.8z" class="color0e538c svgShape"></path><path fill="#ffffff" d="M451.5,267.6l31.7-16.9l23.8-5.3l13.4,7.1c0,0,27.9,16,30.7,16c2.8,0-0.9,149.2-0.9,149.2l-71.5,2.4l-26,2.1
		L451.5,267.6z" class="colorfff svgShape"></path><path fill="#099a97" d="M472.8,465.1l-0.6-183.3l10.2-30.2c-13.1,1.6-26.3,2.9-35.7,14.4l-2,181.5L472.8,465.1z" class="color0e538c svgShape"></path><polygon fill="#099a97" points="513.2 250.7 524 270.5 521.9 394.8 530.5 466.3 557.5 455.7 562.4 287.1 554 259.2" class="color0e538c svgShape"></polygon><polygon fill="#0b706e" points="468.4 359.9 457.5 287.7 464.8 282.4 456.9 276 463.8 255.1 483.3 248.9 474.6 281.8 470.3 398.4" class="color0b4870 svgShape"></polygon><path fill="#ff5555" d="M484.6,264.7c0,0-10.9,47.5-1.3,134.7c0.6,5.6,8.1,8.7,8.1,8.7l7.3-9c0,0-7.7-75-8.6-129.5
		C489.9,262.8,484.3,271.2,484.6,264.7z" class="colorffbe55 svgShape"></path><polygon fill="#f1e4e4" points="488.5 259.3 496.7 270.1 513.7 251.6 513.7 248.5" class="colorf2f2f2 svgShape"></polygon><polygon fill="#f1e4e4" points="483.7 247.6 477.6 270.9 485.7 261.2" class="colorf2f2f2 svgShape"></polygon><path fill="#fcb1b1" d="M516.4,233.4c-0.8,3.9-2.3,12.1-3.9,15.6c-2.5,5.4-24.6,10.2-27.9,11c-3.4,0.8,0.8-16.3,0.8-20.2
		c0-3,2-2-0.4-6.3H516.4z" class="colorfcd2b1 svgShape"></path><path fill="#ffcaca" d="M478.8,224.8c-0.6,3.3,1.8,6.5,5.3,7l28.4,4.4c3.5,0.5,6.8-1.7,7.3-5.1l6.7-40.2c0.6-3.3-1.8-6.5-5.3-7
		l-28.4-4.3c-3.5-0.5-6.8,1.7-7.3,5.1L478.8,224.8z" class="colorffe3ca svgShape"></path><path fill="#ff5555" d="M484.1,194.8c0,0-3.2-4.5-3.5-7c-0.2-1.3,1.8-5.6,5.3-6.9c3.5-1.3,5.5,2.4,5.5,2.4s-5.5,1.9-5.9,2.9
		C485.1,187.2,484.1,194.8,484.1,194.8z" class="colorffbe55 svgShape"></path><path fill="#ff5555" d="M526.4,209.4c0,0,6.9-14.8,6.9-19.4c0-4.7,0-7.9-5.7-9.3c-8.5-2.1-8.9-0.3-12.7-3.5
		c-3.8-3.1-10.3-10.4-12.8-11.4c-4.2-1.7-11.2-1.3-12.8,6.4c-1.2,5.7-5.2,6.5-5.1,6.8c0.2,0.7,1.7,1.7,4.2,3.4
		c7.3,5,11.9,6.5,18.2,5.9c6.3-0.6,18.1-2.1,18.7,2.4c0.6,4.5-2.1,17.5-1.8,18.5C523.8,210.3,525.3,210,526.4,209.4z" class="colorffbe55 svgShape"></path><path fill="#ffcaca" d="M515.5 220.1c-.2 1.1.6 2.2 1.8 2.3l6.1.9c1.2.2 2.3-.6 2.4-1.7l1.8-10.7c.2-1.1-.6-2.2-1.8-2.3l-6.1-.9c-1.2-.2-2.3.6-2.4 1.7L515.5 220.1zM478.9 214.5c-.2 1.1.6 2.2 1.8 2.3l6.1.9c1.2.2 2.3-.6 2.4-1.7l1.8-10.7c.2-1.1-.6-2.2-1.8-2.3l-6.1-.9c-1.2-.2-2.2.6-2.4 1.7L478.9 214.5z" class="colorffe3ca svgShape"></path><path fill="#ff5555" d="M523.1,212.5c0,0-2.7,15.8-3.5,21.1c-0.8,4.8-4.6,14.9-32.8,10.6c-16.7-2.5-14.1-14.2-13.5-18
		c0.5-2.9,5.4-11.2,7.5-12.6c0.1,0-1.1,6.5-1.1,6.5s4.5-5.8,12.5-4.6c12.8,2,14.5,9.6,20.2,10.3
		C516.8,226.4,521.2,220.1,523.1,212.5z" class="colorffbe55 svgShape"></path><path fill="#ffcaca" d="M495.7,226.7l-8.8-1.3c-1.2-0.2-2-1.2-1.8-2.3l0.2-1.2l13,2l-0.2,1.2C498,226.1,496.9,226.9,495.7,226.7z" class="colorffe3ca svgShape"></path><polygon fill="#ff5555" points="484.5 260 488.5 259.3 491.2 268.4 485.9 271.3 481.8 270" class="colorffbe55 svgShape"></polygon><path fill="#0b706e" d="M513,247c-0.9,2.7,9.9,24.7,9.9,24.7L522,387.2l19.4-98.3l-6.1-7.6l6.7-6.4L529.8,252L513,247z" class="color0b4870 svgShape"></path><path fill="#f1e4e4" d="M202.3,128.8l-9.3,46.8l-9.3,46.8c0,0,53.1-16.6,113.5-4.7l4.1-20.6l4.1-20.8
					C245.1,164.4,202.3,128.8,202.3,128.8z" class="colorf2f2f2 svgShape"></path><defs><path id="a" d="M288.8,268.9l-5.3-2.5l24.1-51.2l13.5,6.4L300.6,265C298.4,269.8,293.6,271.2,288.8,268.9z" fill="#000000" class="color000 svgShape"></path></defs><use fill="#ffbe55" overflow="visible" xlink:href="#a"></use><clipPath id="b"><use overflow="visible" xlink:href="#a"></use></clipPath><path fill="#ff5555" d="M321.1,215.2v56V215.2z" clip-path="url(#b)" class="colorffbe55 svgShape"></path><rect width=".6" height="56" x="320.5" y="215.2" fill="#ff5555" clip-path="url(#b)" class="colorffbe55 svgShape"></rect><rect width=".6" height="56" x="319.9" y="215.2" fill="#ff5555" clip-path="url(#b)" class="colorffbe55 svgShape"></rect><rect width=".6" height="56" x="319.3" y="215.2" fill="#ff5555" clip-path="url(#b)" class="colorffbe55 svgShape"></rect><rect width=".6" height="56" x="318.8" y="215.2" fill="#ff5555" clip-path="url(#b)" class="colorffbe55 svgShape"></rect><rect width=".6" height="56" x="318.2" y="215.2" fill="#ff5555" clip-path="url(#b)" class="colorffbe55 svgShape"></rect><rect width=".6" height="56" x="317.6" y="215.2" fill="#ff5555" clip-path="url(#b)" class="colorffbe55 svgShape"></rect><rect width=".6" height="56" x="317" y="215.2" fill="#ff5555" clip-path="url(#b)" class="colorffbe55 svgShape"></rect><rect width=".6" height="56" x="316.4" y="215.2" fill="#ff5555" clip-path="url(#b)" class="colorffbe55 svgShape"></rect><rect width=".6" height="56" x="315.9" y="215.2" fill="#ff5555" clip-path="url(#b)" class="colorffbe55 svgShape"></rect><rect width=".6" height="56" x="315.3" y="215.2" fill="#ff5555" clip-path="url(#b)" class="colorffbe55 svgShape"></rect><rect width=".6" height="56" x="314.7" y="215.2" fill="#ff5555" clip-path="url(#b)" class="colorffbe55 svgShape"></rect><rect width=".6" height="56" x="314.1" y="215.2" fill="#ff5555" clip-path="url(#b)" class="colorffbe55 svgShape"></rect><rect width=".6" height="56" x="313.6" y="215.2" fill="#ff5555" clip-path="url(#b)" class="colorffbe55 svgShape"></rect><rect width=".6" height="56" x="313" y="215.2" fill="#ff5555" clip-path="url(#b)" class="colorffbe55 svgShape"></rect><rect width=".6" height="56" x="312.4" y="215.2" fill="#ff5555" clip-path="url(#b)" class="colorffbe55 svgShape"></rect><rect width=".6" height="56" x="311.8" y="215.2" fill="#ff5555" clip-path="url(#b)" class="colorffbe55 svgShape"></rect><rect width=".6" height="56" x="311.2" y="215.2" fill="#ff5555" clip-path="url(#b)" class="colorffbe55 svgShape"></rect><rect width=".6" height="56" x="310.7" y="215.2" fill="#ff5555" clip-path="url(#b)" class="colorffbe55 svgShape"></rect><rect width=".6" height="56" x="310.1" y="215.2" fill="#ff5555" clip-path="url(#b)" class="colorffbe55 svgShape"></rect><rect width=".6" height="56" x="309.5" y="215.2" fill="#ff5555" clip-path="url(#b)" class="colorffbe55 svgShape"></rect><rect width=".6" height="56" x="308.9" y="215.2" fill="#ff5555" clip-path="url(#b)" class="colorffbe55 svgShape"></rect><rect width=".6" height="56" x="308.4" y="215.2" fill="#ff5555" clip-path="url(#b)" class="colorffbe55 svgShape"></rect><rect width=".6" height="56" x="307.8" y="215.2" fill="#ff5555" clip-path="url(#b)" class="colorffbe55 svgShape"></rect><rect width=".6" height="56" x="307.2" y="215.2" fill="#ff5555" clip-path="url(#b)" class="colorffbe55 svgShape"></rect><rect width=".6" height="56" x="306.6" y="215.2" fill="#ff5555" clip-path="url(#b)" class="colorffbe55 svgShape"></rect><rect width=".6" height="56" x="306" y="215.2" fill="#ff5555" clip-path="url(#b)" class="colorffbe55 svgShape"></rect><rect width=".6" height="56" x="305.5" y="215.2" fill="#ff5555" clip-path="url(#b)" class="colorffbe55 svgShape"></rect><rect width=".6" height="56" x="304.9" y="215.2" fill="#ff5555" clip-path="url(#b)" class="colorffbe55 svgShape"></rect><rect width=".6" height="56" x="304.3" y="215.2" fill="#ff5555" clip-path="url(#b)" class="colorffbe55 svgShape"></rect><rect width=".6" height="56" x="303.7" y="215.2" fill="#ff5555" clip-path="url(#b)" class="colorffbe55 svgShape"></rect><rect width=".6" height="56" x="303.1" y="215.2" fill="#ff5555" clip-path="url(#b)" class="colorffbe55 svgShape"></rect><rect width=".6" height="56" x="302.6" y="215.2" fill="#ff5555" clip-path="url(#b)" class="colorffbe55 svgShape"></rect><rect width=".6" height="56" x="302" y="215.2" fill="#ff5555" clip-path="url(#b)" class="colorffbe55 svgShape"></rect><rect width=".6" height="56" x="301.4" y="215.2" fill="#ff5555" clip-path="url(#b)" class="colorffbe55 svgShape"></rect><rect width=".6" height="56" x="300.8" y="215.2" fill="#ff5555" clip-path="url(#b)" class="colorffbe55 svgShape"></rect><rect width=".6" height="56" x="300.2" y="215.2" fill="#ff5555" clip-path="url(#b)" class="colorffbe55 svgShape"></rect><rect width=".6" height="56" x="299.7" y="215.2" fill="#ff5555" clip-path="url(#b)" class="colorffbe55 svgShape"></rect><rect width=".6" height="56" x="299.1" y="215.2" fill="#ff5555" clip-path="url(#b)" class="colorffbe55 svgShape"></rect><rect width=".6" height="56" x="298.5" y="215.2" fill="#ff5555" clip-path="url(#b)" class="colorffbe55 svgShape"></rect><rect width=".6" height="56" x="297.9" y="215.2" fill="#ff5555" clip-path="url(#b)" class="colorffbe55 svgShape"></rect><rect width=".6" height="56" x="297.3" y="215.2" fill="#ff5555" clip-path="url(#b)" class="colorffbe55 svgShape"></rect><rect width=".6" height="56" x="296.8" y="215.2" fill="#ff5555" clip-path="url(#b)" class="colorffbe55 svgShape"></rect><rect width=".6" height="56" x="296.2" y="215.2" fill="#ff5555" clip-path="url(#b)" class="colorffbe55 svgShape"></rect><rect width=".6" height="56" x="295.6" y="215.2" fill="#ff5555" clip-path="url(#b)" class="colorffbe55 svgShape"></rect><rect width=".6" height="56" x="295" y="215.2" fill="#ff5555" clip-path="url(#b)" class="colorffbe55 svgShape"></rect><rect width=".6" height="56" x="294.5" y="215.2" fill="#ff5555" clip-path="url(#b)" class="colorffbe55 svgShape"></rect><rect width=".6" height="56" x="293.9" y="215.2" fill="#ff5555" clip-path="url(#b)" class="colorffbe55 svgShape"></rect><rect width=".6" height="56" x="293.3" y="215.2" fill="#ff5555" clip-path="url(#b)" class="colorffbe55 svgShape"></rect><rect width=".6" height="56" x="292.7" y="215.2" fill="#ff5555" clip-path="url(#b)" class="colorffbe55 svgShape"></rect><rect width=".6" height="56" x="292.1" y="215.2" fill="#ff5555" clip-path="url(#b)" class="colorffbe55 svgShape"></rect><rect width=".6" height="56" x="291.6" y="215.2" fill="#ff5555" clip-path="url(#b)" class="colorffbe55 svgShape"></rect><rect width=".6" height="56" x="291" y="215.2" fill="#ff5555" clip-path="url(#b)" class="colorffbe55 svgShape"></rect><rect width=".6" height="56" x="290.4" y="215.2" fill="#ff5555" clip-path="url(#b)" class="colorffbe55 svgShape"></rect><rect width=".6" height="56" x="289.8" y="215.2" fill="#ff5555" clip-path="url(#b)" class="colorffbe55 svgShape"></rect><rect width=".6" height="56" x="289.2" y="215.2" fill="#ff5555" clip-path="url(#b)" class="colorffbe55 svgShape"></rect><rect width=".6" height="56" x="288.7" y="215.2" fill="#ff5555" clip-path="url(#b)" class="colorffbe55 svgShape"></rect><rect width=".6" height="56" x="288.1" y="215.2" fill="#ff5555" clip-path="url(#b)" class="colorffbe55 svgShape"></rect><rect width=".6" height="56" x="287.5" y="215.2" fill="#ff5555" clip-path="url(#b)" class="colorffbe55 svgShape"></rect><rect width=".6" height="56" x="286.9" y="215.2" fill="#ff5555" clip-path="url(#b)" class="colorffbe55 svgShape"></rect><rect width=".6" height="56" x="286.3" y="215.2" fill="#ff5555" clip-path="url(#b)" class="colorffbe55 svgShape"></rect><rect width=".6" height="56" x="285.8" y="215.2" fill="#ff5555" clip-path="url(#b)" class="colorffbe55 svgShape"></rect><rect width=".6" height="56" x="285.2" y="215.2" fill="#ff5555" clip-path="url(#b)" class="colorffbe55 svgShape"></rect><rect width=".6" height="56" x="284.6" y="215.2" fill="#ff5555" clip-path="url(#b)" class="colorffbe55 svgShape"></rect><rect width=".6" height="56" x="284" y="215.2" fill="#ff5555" clip-path="url(#b)" class="colorffbe55 svgShape"></rect><rect width=".6" height="56" x="283.4" y="215.2" fill="#ff5555" clip-path="url(#b)" class="colorffbe55 svgShape"></rect><path fill="#ff5555" d="M283.4,271.2v-56V271.2z" clip-path="url(#b)" class="colorffbe55 svgShape"></path><defs><polygon id="c" points="338.9 226.4 285.7 216.5 294.3 172.8 347.1 184.9" fill="#000000" class="color000 svgShape"></polygon></defs><use fill="#ffbe55" overflow="visible" xlink:href="#c"></use><clipPath id="d"><use overflow="visible" xlink:href="#c"></use></clipPath><path fill="#ff5555" d="M347.1,172.8v53.6V172.8z" clip-path="url(#d)" class="colorffbe55 svgShape"></path><rect width=".9" height="53.6" x="346.2" y="172.8" fill="#ff5555" clip-path="url(#d)" class="colorffbe55 svgShape"></rect><rect width=".9" height="53.6" x="345.2" y="172.8" fill="#ff5555" clip-path="url(#d)" class="colorffbe55 svgShape"></rect><rect width="1" height="53.6" x="344.3" y="172.8" fill="#ff5555" clip-path="url(#d)" class="colorffbe55 svgShape"></rect><rect width=".9" height="53.6" x="343.3" y="172.8" fill="#ff5555" clip-path="url(#d)" class="colorffbe55 svgShape"></rect><rect width=".9" height="53.6" x="342.4" y="172.8" fill="#ff5555" clip-path="url(#d)" class="colorffbe55 svgShape"></rect><rect width=".9" height="53.6" x="341.5" y="172.8" fill="#ff5555" clip-path="url(#d)" class="colorffbe55 svgShape"></rect><rect width=".9" height="53.6" x="340.5" y="172.8" fill="#ff5555" clip-path="url(#d)" class="colorffbe55 svgShape"></rect><rect width=".9" height="53.6" x="339.6" y="172.8" fill="#ff5555" clip-path="url(#d)" class="colorffbe55 svgShape"></rect><rect width=".9" height="53.6" x="338.6" y="172.8" fill="#ff5555" clip-path="url(#d)" class="colorffbe55 svgShape"></rect><rect width=".9" height="53.6" x="337.7" y="172.8" fill="#ff5555" clip-path="url(#d)" class="colorffbe55 svgShape"></rect><rect width="1" height="53.6" x="336.7" y="172.8" fill="#ff5555" clip-path="url(#d)" class="colorffbe55 svgShape"></rect><rect width=".9" height="53.6" x="335.8" y="172.8" fill="#ff5555" clip-path="url(#d)" class="colorffbe55 svgShape"></rect><rect width=".9" height="53.6" x="334.8" y="172.8" fill="#ff5555" clip-path="url(#d)" class="colorffbe55 svgShape"></rect><rect width=".9" height="53.6" x="333.9" y="172.8" fill="#ff5555" clip-path="url(#d)" class="colorffbe55 svgShape"></rect><rect width=".9" height="53.6" x="332.9" y="172.8" fill="#ff5555" clip-path="url(#d)" class="colorffbe55 svgShape"></rect><rect width=".9" height="53.6" x="332" y="172.8" fill="#ff5555" clip-path="url(#d)" class="colorffbe55 svgShape"></rect><rect width=".9" height="53.6" x="331.1" y="172.8" fill="#ff5555" clip-path="url(#d)" class="colorffbe55 svgShape"></rect><rect width=".9" height="53.6" x="330.1" y="172.8" fill="#ff5555" clip-path="url(#d)" class="colorffbe55 svgShape"></rect><rect width="1" height="53.6" x="329.2" y="172.8" fill="#ff5555" clip-path="url(#d)" class="colorffbe55 svgShape"></rect><rect width=".9" height="53.6" x="328.2" y="172.8" fill="#ff5555" clip-path="url(#d)" class="colorffbe55 svgShape"></rect><rect width=".9" height="53.6" x="327.3" y="172.8" fill="#ff5555" clip-path="url(#d)" class="colorffbe55 svgShape"></rect><rect width=".9" height="53.6" x="326.3" y="172.8" fill="#ff5555" clip-path="url(#d)" class="colorffbe55 svgShape"></rect><rect width=".9" height="53.6" x="325.4" y="172.8" fill="#ff5555" clip-path="url(#d)" class="colorffbe55 svgShape"></rect><rect width=".9" height="53.6" x="324.4" y="172.8" fill="#ff5555" clip-path="url(#d)" class="colorffbe55 svgShape"></rect><rect width=".9" height="53.6" x="323.5" y="172.8" fill="#ff5555" clip-path="url(#d)" class="colorffbe55 svgShape"></rect><rect width=".9" height="53.6" x="322.6" y="172.8" fill="#ff5555" clip-path="url(#d)" class="colorffbe55 svgShape"></rect><rect width=".9" height="53.6" x="321.6" y="172.8" fill="#ff5555" clip-path="url(#d)" class="colorffbe55 svgShape"></rect><rect width=".9" height="53.6" x="320.7" y="172.8" fill="#ff5555" clip-path="url(#d)" class="colorffbe55 svgShape"></rect><rect width=".9" height="53.6" x="319.7" y="172.8" fill="#ff5555" clip-path="url(#d)" class="colorffbe55 svgShape"></rect><rect width="1" height="53.6" x="318.8" y="172.8" fill="#ff5555" clip-path="url(#d)" class="colorffbe55 svgShape"></rect><rect width=".9" height="53.6" x="317.8" y="172.8" fill="#ff5555" clip-path="url(#d)" class="colorffbe55 svgShape"></rect><rect width=".9" height="53.6" x="316.9" y="172.8" fill="#ff5555" clip-path="url(#d)" class="colorffbe55 svgShape"></rect><rect width=".9" height="53.6" x="315.9" y="172.8" fill="#ff5555" clip-path="url(#d)" class="colorffbe55 svgShape"></rect><rect width=".9" height="53.6" x="315" y="172.8" fill="#ff5555" clip-path="url(#d)" class="colorffbe55 svgShape"></rect><rect width=".9" height="53.6" x="314" y="172.8" fill="#ff5555" clip-path="url(#d)" class="colorffbe55 svgShape"></rect><rect width=".9" height="53.6" x="313.1" y="172.8" fill="#ff5555" clip-path="url(#d)" class="colorffbe55 svgShape"></rect><rect width=".9" height="53.6" x="312.2" y="172.8" fill="#ff5555" clip-path="url(#d)" class="colorffbe55 svgShape"></rect><rect width="1" height="53.6" x="311.2" y="172.8" fill="#ff5555" clip-path="url(#d)" class="colorffbe55 svgShape"></rect><rect width=".9" height="53.6" x="310.3" y="172.8" fill="#ff5555" clip-path="url(#d)" class="colorffbe55 svgShape"></rect><rect width=".9" height="53.6" x="309.3" y="172.8" fill="#ff5555" clip-path="url(#d)" class="colorffbe55 svgShape"></rect><rect width=".9" height="53.6" x="308.4" y="172.8" fill="#ff5555" clip-path="url(#d)" class="colorffbe55 svgShape"></rect><rect width=".9" height="53.6" x="307.4" y="172.8" fill="#ff5555" clip-path="url(#d)" class="colorffbe55 svgShape"></rect><rect width=".9" height="53.6" x="306.5" y="172.8" fill="#ff5555" clip-path="url(#d)" class="colorffbe55 svgShape"></rect><rect width=".9" height="53.6" x="305.5" y="172.8" fill="#ff5555" clip-path="url(#d)" class="colorffbe55 svgShape"></rect><rect width=".9" height="53.6" x="304.6" y="172.8" fill="#ff5555" clip-path="url(#d)" class="colorffbe55 svgShape"></rect><rect width=".9" height="53.6" x="303.6" y="172.8" fill="#ff5555" clip-path="url(#d)" class="colorffbe55 svgShape"></rect><rect width="1" height="53.6" x="302.7" y="172.8" fill="#ff5555" clip-path="url(#d)" class="colorffbe55 svgShape"></rect><rect width=".9" height="53.6" x="301.8" y="172.8" fill="#ff5555" clip-path="url(#d)" class="colorffbe55 svgShape"></rect><rect width=".9" height="53.6" x="300.8" y="172.8" fill="#ff5555" clip-path="url(#d)" class="colorffbe55 svgShape"></rect><rect width=".9" height="53.6" x="299.9" y="172.8" fill="#ff5555" clip-path="url(#d)" class="colorffbe55 svgShape"></rect><rect width=".9" height="53.6" x="298.9" y="172.8" fill="#ff5555" clip-path="url(#d)" class="colorffbe55 svgShape"></rect><rect width=".9" height="53.6" x="298" y="172.8" fill="#ff5555" clip-path="url(#d)" class="colorffbe55 svgShape"></rect><rect width=".9" height="53.6" x="297" y="172.8" fill="#ff5555" clip-path="url(#d)" class="colorffbe55 svgShape"></rect><rect width=".9" height="53.6" x="296.1" y="172.8" fill="#ff5555" clip-path="url(#d)" class="colorffbe55 svgShape"></rect><rect width="1" height="53.6" x="295.1" y="172.8" fill="#ff5555" clip-path="url(#d)" class="colorffbe55 svgShape"></rect><rect width=".9" height="53.6" x="294.2" y="172.8" fill="#ff5555" clip-path="url(#d)" class="colorffbe55 svgShape"></rect><rect width=".9" height="53.6" x="293.2" y="172.8" fill="#ff5555" clip-path="url(#d)" class="colorffbe55 svgShape"></rect><rect width=".9" height="53.6" x="292.3" y="172.8" fill="#ff5555" clip-path="url(#d)" class="colorffbe55 svgShape"></rect><rect width=".9" height="53.6" x="291.4" y="172.8" fill="#ff5555" clip-path="url(#d)" class="colorffbe55 svgShape"></rect><rect width=".9" height="53.6" x="290.4" y="172.8" fill="#ff5555" clip-path="url(#d)" class="colorffbe55 svgShape"></rect><rect width=".9" height="53.6" x="289.5" y="172.8" fill="#ff5555" clip-path="url(#d)" class="colorffbe55 svgShape"></rect><rect width=".9" height="53.6" x="288.5" y="172.8" fill="#ff5555" clip-path="url(#d)" class="colorffbe55 svgShape"></rect><rect width=".9" height="53.6" x="287.6" y="172.8" fill="#ff5555" clip-path="url(#d)" class="colorffbe55 svgShape"></rect><rect width="1" height="53.6" x="286.6" y="172.8" fill="#ff5555" clip-path="url(#d)" class="colorffbe55 svgShape"></rect><rect width=".9" height="53.6" x="285.7" y="172.8" fill="#ff5555" clip-path="url(#d)" class="colorffbe55 svgShape"></rect><path fill="#ff5555" d="M285.7,226.4v-53.6V226.4z" clip-path="url(#d)" class="colorffbe55 svgShape"></path><ellipse cx="263.5" cy="471.5" fill="#15cda8" rx="67.5" ry="48.8" class="color2a94f4 svgShape"></ellipse><ellipse cx="235.2" cy="509.9" fill="#ff5555" rx="57.9" ry="41.8" class="colorffbe55 svgShape"></ellipse><polygon fill="#ff5555" points="236.6 546.2 256.2 546.2 256.2 572" class="colorffbe55 svgShape"></polygon><polygon fill="#15cda8" points="269.7 434.1 292.6 434.1 292.6 404" class="color2a94f4 svgShape"></polygon><g fill="#000000" class="color000 svgShape"><path fill="#ff5555" d="M178.2,155.7c-1.2,1.2-3.1,1.2-4.2,0l-26.2-26.2c-1.2-1.2-1.2-3.1,0-4.2c1.2-1.2,3.1-1.2,4.2,0l26.2,26.2
			C179.4,152.6,179.4,154.5,178.2,155.7z" class="colorffbe55 svgShape"></path></g><g fill="#000000" class="color000 svgShape"><path fill="#ff5555" d="M165.9,197.7c0.2,1.6-1,3.1-2.7,3.3l-36.8,3.9c-1.6,0.2-3.1-1-3.3-2.7c-0.2-1.6,1-3.1,2.7-3.3l36.8-3.9
			C164.2,194.9,165.7,196.1,165.9,197.7z" class="colorffbe55 svgShape"></path></g><g fill="#000000" class="color000 svgShape"><path fill="#ff5555" d="M159.8,174.1c-0.5,1.6-2.3,2.4-3.8,1.8L121,163.7c-1.6-0.5-2.4-2.3-1.8-3.8c0.5-1.6,2.3-2.4,3.8-1.8
			l34.9,12.2C159.5,170.8,160.3,172.5,159.8,174.1z" class="colorffbe55 svgShape"></path></g></svg></g></svg>