<svg xmlns="http://www.w3.org/2000/svg" version="1.1" xmlns:xlink="http://www.w3.org/1999/xlink" xmlns:svgjs="http://svgjs.com/svgjs" width="1440" height="900" preserveAspectRatio="none" viewBox="0 0 1440 900"><g mask="url(&quot;#SvgjsMask1045&quot;)" fill="none"><rect width="1440" height="900" x="0" y="0" fill="rgba(6, 54, 44, 1)"></rect><path d="M 0,51 C 96,72.8 288,166.6 480,160 C 672,153.4 768,17.6 960,18 C 1152,18.4 1344,133.2 1440,162L1440 900L0 900z" fill="rgba(6, 54, 44, 1)"></path><path d="M 0,261 C 96,266.6 288,304 480,289 C 672,274 768,185 960,186 C 1152,187 1344,272.4 1440,294L1440 900L0 900z" fill="rgba(6, 54, 44, 1)"></path><path d="M 0,426 C 96,448.2 288,547 480,537 C 672,527 768,378.6 960,376 C 1152,373.4 1344,494.4 1440,524L1440 900L0 900z" fill="rgba(11, 105, 85, 1)"></path><path d="M 0,717 C 72,692.2 216,598.6 360,593 C 504,587.4 576,698.8 720,689 C 864,679.2 936,547 1080,544 C 1224,541 1368,648 1440,674L1440 900L0 900z" fill="rgba(21, 141, 115, 1)"></path><path d="M 0,852 C 57.6,827.6 172.8,722.2 288,730 C 403.2,737.8 460.8,885.6 576,891 C 691.2,896.4 748.8,768.4 864,757 C 979.2,745.6 1036.8,835 1152,834 C 1267.2,833 1382.4,768.4 1440,752L1440 900L0 900z" fill="rgba(246, 252, 250, 1)"></path></g><defs><mask id="SvgjsMask1045"><rect width="1440" height="900" fill="#ffffff"></rect></mask></defs></svg>
